<svg xmlns="http://www.w3.org/2000/svg" viewBox="20 157.1292992413221 535 260.74140151735577"> <g transform="rotate(0 287.5 258.7367541426978)"><svg xmlns="http://www.w3.org/2000/svg" xmlns:xlink="http://www.w3.org/1999/xlink" version="1.1" id="Layer_1" x="194.49229646804523" y="227.1292992413221" viewBox="548 552.4000244140625 1104 375.199951171875" xml:space="preserve" height="63.21490980275142" width="186.01540706390955" preserveAspectRatio="xMinYMin" enable-background="new 0 0 2200 1480" style="overflow: visible;"><polygon class="st0" points="1410,708.7 1652,927.6 1411.3,628.5 1356.5,698.9 1208.8,552.4 1011.6,691.1 935.5,624.4 548,927.6   894,755.6 986.5,826.3 945.7,670 1182.3,926.9 1163.2,765.2 1314.1,871.2 1160.5,684.9 1253,747.5 1217.6,622.4 1540.5,881.4 " style="fill: #262262; fill-opacity: 1;"></polygon></svg></g> <g transform="rotate(0 287.5 344.54570071099414)"><svg xmlns="http://www.w3.org/2000/svg" y="341.2207006633104" viewBox="0.27000001072883606 1.8899999856948853 395 6.650000095367432" x="90" height="6.650000095367432" width="395" style="overflow: visible;"><g fill="#242526" fill-opacity="1" style=""><path d="M1.13 1.97L2.15 6.41L2.27 7.26L2.45 6.49L3.74 1.97L4.46 1.97L5.71 6.49L5.88 7.28L6.02 6.40L7.03 1.97L7.88 1.97L6.31 8.45L5.54 8.45L4.20 3.73L4.10 3.24L4.00 3.73L2.61 8.45L1.84 8.45L0.27 1.97L1.13 1.97ZM19.64 1.97L19.64 8.45L18.78 8.45L18.78 5.46L15.51 5.46L15.51 8.45L14.66 8.45L14.66 1.97L15.51 1.97L15.51 4.76L18.78 4.76L18.78 1.97L19.64 1.97ZM30.64 4.76L30.64 5.46L27.84 5.46L27.84 7.75L31.10 7.75L31.10 8.45L26.98 8.45L26.98 1.97L31.05 1.97L31.05 2.68L27.84 2.68L27.84 4.76L30.64 4.76ZM41.77 8.45L40.36 5.83L38.84 5.83L38.84 8.45L37.98 8.45L37.98 1.97L40.13 1.97Q41.22 1.97 41.81 2.47Q42.40 2.97 42.40 3.92L42.40 3.92Q42.40 4.53 42.07 4.98Q41.74 5.43 41.16 5.65L41.16 5.65L42.68 8.40L42.68 8.45L41.77 8.45ZM38.84 2.68L38.84 5.13L40.15 5.13Q40.79 5.13 41.16 4.80Q41.54 4.47 41.54 3.92L41.54 3.92Q41.54 3.32 41.18 3.00Q40.82 2.68 40.15 2.68L40.15 2.68L38.84 2.68ZM53.08 4.76L53.08 5.46L50.28 5.46L50.28 7.75L53.54 7.75L53.54 8.45L49.42 8.45L49.42 1.97L53.49 1.97L53.49 2.68L50.28 2.68L50.28 4.76L53.08 4.76ZM72.08 4.89L72.08 5.59L69.37 5.59L69.37 8.45L68.51 8.45L68.51 1.97L72.52 1.97L72.52 2.68L69.37 2.68L69.37 4.89L72.08 4.89ZM82.81 8.45L82.19 6.76L79.48 6.76L78.87 8.45L77.99 8.45L80.46 1.97L81.21 1.97L83.69 8.45L82.81 8.45ZM80.84 3.03L79.74 6.06L81.94 6.06L80.84 3.03ZM91.30 1.97L91.30 8.45L90.45 8.45L90.45 1.97L91.30 1.97ZM103.04 1.97L103.04 2.68L100.96 2.68L100.96 8.45L100.11 8.45L100.11 2.68L98.03 2.68L98.03 1.97L103.04 1.97ZM114.80 1.97L114.80 8.45L113.95 8.45L113.95 5.46L110.68 5.46L110.68 8.45L109.83 8.45L109.83 1.97L110.68 1.97L110.68 4.76L113.95 4.76L113.95 1.97L114.80 1.97ZM135.01 5.23L135.01 7.60Q134.68 8.07 134.09 8.30Q133.51 8.54 132.72 8.54L132.72 8.54Q131.93 8.54 131.32 8.17Q130.70 7.80 130.37 7.11Q130.03 6.43 130.02 5.52L130.02 5.52L130.02 4.96Q130.02 3.50 130.71 2.69Q131.39 1.89 132.63 1.89L132.63 1.89Q133.64 1.89 134.26 2.40Q134.88 2.92 135.01 3.87L135.01 3.87L134.16 3.87Q133.92 2.59 132.63 2.59L132.63 2.59Q131.77 2.59 131.33 3.19Q130.89 3.79 130.88 4.94L130.88 4.94L130.88 5.47Q130.88 6.55 131.38 7.20Q131.88 7.84 132.73 7.84L132.73 7.84Q133.21 7.84 133.57 7.73Q133.93 7.63 134.16 7.37L134.16 7.37L134.16 5.92L132.67 5.92L132.67 5.23L135.01 5.23ZM146.04 8.45L144.64 5.83L143.12 5.83L143.12 8.45L142.26 8.45L142.26 1.97L144.40 1.97Q145.50 1.97 146.09 2.47Q146.68 2.97 146.68 3.92L146.68 3.92Q146.68 4.53 146.35 4.98Q146.02 5.43 145.44 5.65L145.44 5.65L146.96 8.40L146.96 8.45L146.04 8.45ZM143.12 2.68L143.12 5.13L144.43 5.13Q145.07 5.13 145.44 4.80Q145.82 4.47 145.82 3.92L145.82 3.92Q145.82 3.32 145.46 3.00Q145.10 2.68 144.43 2.68L144.43 2.68L143.12 2.68ZM158.68 5.01L158.68 5.42Q158.68 6.37 158.36 7.08Q158.04 7.79 157.45 8.16Q156.87 8.54 156.08 8.54L156.08 8.54Q155.32 8.54 154.73 8.16Q154.14 7.79 153.81 7.09Q153.48 6.39 153.47 5.48L153.47 5.48L153.47 5.01Q153.47 4.08 153.80 3.36Q154.12 2.65 154.72 2.27Q155.31 1.89 156.08 1.89L156.08 1.89Q156.85 1.89 157.45 2.26Q158.04 2.64 158.36 3.35Q158.68 4.06 158.68 5.01L158.68 5.01ZM157.83 5.48L157.83 5.00Q157.83 3.85 157.37 3.24Q156.91 2.62 156.08 2.62L156.08 2.62Q155.27 2.62 154.80 3.24Q154.34 3.85 154.32 4.95L154.32 4.95L154.32 5.42Q154.32 6.54 154.79 7.18Q155.26 7.81 156.08 7.81L156.08 7.81Q156.91 7.81 157.37 7.21Q157.82 6.61 157.83 5.48L157.83 5.48ZM166.16 1.97L167.19 6.41L167.31 7.26L167.49 6.49L168.78 1.97L169.50 1.97L170.75 6.49L170.92 7.28L171.06 6.40L172.07 1.97L172.92 1.97L171.35 8.45L170.58 8.45L169.24 3.73L169.14 3.24L169.04 3.73L167.65 8.45L166.88 8.45L165.31 1.97L166.16 1.97ZM181.61 5.56L181.61 5.56Q180.51 5.25 180.01 4.79Q179.51 4.33 179.51 3.65L179.51 3.65Q179.51 2.89 180.12 2.39Q180.73 1.89 181.71 1.89L181.71 1.89Q182.38 1.89 182.90 2.14Q183.42 2.40 183.71 2.85Q184.00 3.31 184.00 3.85L184.00 3.85L183.14 3.85Q183.14 3.26 182.76 2.92Q182.39 2.59 181.71 2.59L181.71 2.59Q181.08 2.59 180.73 2.87Q180.37 3.14 180.37 3.64L180.37 3.64Q180.37 4.03 180.71 4.31Q181.04 4.58 181.85 4.81Q182.66 5.03 183.11 5.31Q183.57 5.58 183.79 5.95Q184.01 6.31 184.01 6.80L184.01 6.80Q184.01 7.59 183.40 8.06Q182.78 8.54 181.75 8.54L181.75 8.54Q181.09 8.54 180.51 8.28Q179.93 8.03 179.62 7.58Q179.30 7.14 179.30 6.57L179.30 6.57L180.16 6.57Q180.16 7.16 180.60 7.50Q181.03 7.84 181.75 7.84L181.75 7.84Q182.43 7.84 182.79 7.56Q183.15 7.29 183.15 6.81Q183.15 6.34 182.82 6.08Q182.48 5.82 181.61 5.56ZM203.21 8.45L202.59 6.76L199.88 6.76L199.27 8.45L198.39 8.45L200.86 1.97L201.61 1.97L204.09 8.45L203.21 8.45ZM201.23 3.03L200.14 6.06L202.34 6.06L201.23 3.03ZM215.76 1.97L215.76 8.45L214.90 8.45L211.64 3.46L211.64 8.45L210.79 8.45L210.79 1.97L211.64 1.97L214.91 6.99L214.91 1.97L215.76 1.97ZM224.90 8.45L223.11 8.45L223.11 1.97L224.93 1.97Q225.78 1.97 226.43 2.35Q227.08 2.72 227.43 3.41Q227.78 4.10 227.79 4.99L227.79 4.99L227.79 5.41Q227.79 6.32 227.44 7.01Q227.08 7.70 226.43 8.07Q225.77 8.44 224.90 8.45L224.90 8.45ZM224.96 2.68L223.96 2.68L223.96 7.75L224.86 7.75Q225.85 7.75 226.40 7.14Q226.94 6.52 226.94 5.39L226.94 5.39L226.94 5.01Q226.94 3.91 226.43 3.30Q225.91 2.69 224.96 2.68L224.96 2.68ZM247.97 1.97L247.97 8.45L247.11 8.45L247.11 5.46L243.84 5.46L243.84 8.45L242.99 8.45L242.99 1.97L243.84 1.97L243.84 4.76L247.11 4.76L247.11 1.97L247.97 1.97ZM258.97 4.76L258.97 5.46L256.17 5.46L256.17 7.75L259.43 7.75L259.43 8.45L255.31 8.45L255.31 1.97L259.38 1.97L259.38 2.68L256.17 2.68L256.17 4.76L258.97 4.76ZM270.51 8.45L269.89 6.76L267.18 6.76L266.57 8.45L265.69 8.45L268.16 1.97L268.91 1.97L271.39 8.45L270.51 8.45ZM268.54 3.03L267.44 6.06L269.64 6.06L268.54 3.03ZM281.87 8.45L280.46 5.83L278.94 5.83L278.94 8.45L278.08 8.45L278.08 1.97L280.23 1.97Q281.32 1.97 281.91 2.47Q282.50 2.97 282.50 3.92L282.50 3.92Q282.50 4.53 282.17 4.98Q281.85 5.43 281.26 5.65L281.26 5.65L282.78 8.40L282.78 8.45L281.87 8.45ZM278.94 2.68L278.94 5.13L280.25 5.13Q280.89 5.13 281.26 4.80Q281.64 4.47 281.64 3.92L281.64 3.92Q281.64 3.32 281.28 3.00Q280.92 2.68 280.25 2.68L280.25 2.68L278.94 2.68ZM293.64 1.97L293.64 2.68L291.56 2.68L291.56 8.45L290.71 8.45L290.71 2.68L288.63 2.68L288.63 1.97L293.64 1.97ZM302.27 5.56L302.27 5.56Q301.17 5.25 300.67 4.79Q300.17 4.33 300.17 3.65L300.17 3.65Q300.17 2.89 300.78 2.39Q301.39 1.89 302.37 1.89L302.37 1.89Q303.04 1.89 303.56 2.14Q304.08 2.40 304.37 2.85Q304.66 3.31 304.66 3.85L304.66 3.85L303.80 3.85Q303.80 3.26 303.42 2.92Q303.05 2.59 302.37 2.59L302.37 2.59Q301.74 2.59 301.38 2.87Q301.03 3.14 301.03 3.64L301.03 3.64Q301.03 4.03 301.37 4.31Q301.70 4.58 302.51 4.81Q303.32 5.03 303.77 5.31Q304.23 5.58 304.45 5.95Q304.67 6.31 304.67 6.80L304.67 6.80Q304.67 7.59 304.06 8.06Q303.44 8.54 302.41 8.54L302.41 8.54Q301.75 8.54 301.17 8.28Q300.59 8.03 300.28 7.58Q299.96 7.14 299.96 6.57L299.96 6.57L300.82 6.57Q300.82 7.16 301.26 7.50Q301.69 7.84 302.41 7.84L302.41 7.84Q303.09 7.84 303.45 7.56Q303.81 7.29 303.81 6.81Q303.81 6.34 303.48 6.08Q303.14 5.82 302.27 5.56ZM323.58 6.39L324.44 6.39Q324.32 7.42 323.68 7.98Q323.04 8.54 321.98 8.54L321.98 8.54Q320.84 8.54 320.14 7.72Q319.45 6.89 319.45 5.51L319.45 5.51L319.45 4.89Q319.45 3.99 319.78 3.30Q320.10 2.62 320.69 2.25Q321.28 1.89 322.06 1.89L322.06 1.89Q323.09 1.89 323.71 2.46Q324.34 3.04 324.44 4.06L324.44 4.06L323.58 4.06Q323.47 3.28 323.10 2.94Q322.73 2.59 322.06 2.59L322.06 2.59Q321.24 2.59 320.78 3.19Q320.31 3.80 320.31 4.91L320.31 4.91L320.31 5.54Q320.31 6.59 320.75 7.22Q321.19 7.84 321.98 7.84L321.98 7.84Q322.69 7.84 323.07 7.52Q323.45 7.20 323.58 6.39L323.58 6.39ZM336.41 5.01L336.41 5.42Q336.41 6.37 336.09 7.08Q335.77 7.79 335.18 8.16Q334.60 8.54 333.82 8.54L333.82 8.54Q333.05 8.54 332.46 8.16Q331.87 7.79 331.54 7.09Q331.21 6.39 331.20 5.48L331.20 5.48L331.20 5.01Q331.20 4.08 331.53 3.36Q331.85 2.65 332.45 2.27Q333.04 1.89 333.81 1.89L333.81 1.89Q334.58 1.89 335.18 2.26Q335.77 2.64 336.09 3.35Q336.41 4.06 336.41 5.01L336.41 5.01ZM335.56 5.48L335.56 5.00Q335.56 3.85 335.10 3.24Q334.64 2.62 333.81 2.62L333.81 2.62Q333.00 2.62 332.53 3.24Q332.07 3.85 332.05 4.95L332.05 4.95L332.05 5.42Q332.05 6.54 332.52 7.18Q332.99 7.81 333.82 7.81L333.82 7.81Q334.64 7.81 335.10 7.21Q335.55 6.61 335.56 5.48L335.56 5.48ZM348.50 1.97L348.50 8.45L347.64 8.45L344.38 3.46L344.38 8.45L343.52 8.45L343.52 1.97L344.38 1.97L347.65 6.99L347.65 1.97L348.50 1.97ZM360.82 1.97L360.82 8.45L359.96 8.45L356.70 3.46L356.70 8.45L355.84 8.45L355.84 1.97L356.70 1.97L359.97 6.99L359.97 1.97L360.82 1.97ZM371.82 4.76L371.82 5.46L369.02 5.46L369.02 7.75L372.28 7.75L372.28 8.45L368.16 8.45L368.16 1.97L372.23 1.97L372.23 2.68L369.02 2.68L369.02 4.76L371.82 4.76ZM383.07 6.39L383.93 6.39Q383.81 7.42 383.17 7.98Q382.54 8.54 381.48 8.54L381.48 8.54Q380.33 8.54 379.64 7.72Q378.95 6.89 378.95 5.51L378.95 5.51L378.95 4.89Q378.95 3.99 379.27 3.30Q379.59 2.62 380.18 2.25Q380.77 1.89 381.55 1.89L381.55 1.89Q382.58 1.89 383.21 2.46Q383.83 3.04 383.93 4.06L383.93 4.06L383.07 4.06Q382.96 3.28 382.59 2.94Q382.22 2.59 381.55 2.59L381.55 2.59Q380.73 2.59 380.27 3.19Q379.81 3.80 379.81 4.91L379.81 4.91L379.81 5.54Q379.81 6.59 380.25 7.22Q380.69 7.84 381.48 7.84L381.48 7.84Q382.19 7.84 382.57 7.52Q382.95 7.20 383.07 6.39L383.07 6.39ZM395.27 1.97L395.27 2.68L393.19 2.68L393.19 8.45L392.34 8.45L392.34 2.68L390.26 2.68L390.26 1.97L395.27 1.97Z" transform="translate(0, 0)"></path></g></svg></g> <g transform="rotate(0 287.5 316.6157000720324)"><svg xmlns="http://www.w3.org/2000/svg" y="299.9907000720324" viewBox="-0.320000022649765 6.889999866485596 372.0350036621094 33.25" x="101.48249816894531" height="33.25" width="372.0350036621094" style="overflow: visible;"><g fill="#242526" fill-opacity="1" style=""><path d="M1.44 30.83L1.44 30.83Q0.67 30.83 0.18 30.33Q-0.32 29.84-0.32 28.96L-0.32 28.96Q-0.32 28.47-0.12 27.86Q0.07 27.24 0.53 26.54L0.53 26.54Q1.34 25.27 2.62 23.71Q3.90 22.14 5.34 20.60Q6.78 19.05 8.07 17.77Q9.35 16.49 10.12 15.78L10.12 15.78Q10.47 14.73 10.81 13.60Q11.14 12.48 11.49 11.28L11.49 11.28Q10.51 12.20 9.26 12.65Q8.01 13.11 6.92 13.18L6.92 13.18L6.89 13.18Q6.54 13.18 6.54 12.94L6.54 12.94Q6.54 12.65 6.96 12.62L6.96 12.62Q7.98 12.51 9.07 11.83Q10.16 11.14 11.09 10.07Q12.02 9.00 12.51 7.77L12.51 7.77Q12.58 7.56 12.99 7.45Q13.39 7.35 13.85 7.35L13.85 7.35Q14.24 7.35 14.53 7.43Q14.83 7.52 14.76 7.77L14.76 7.77Q14.13 9.39 13.53 10.88Q12.94 12.37 12.37 13.78L12.37 13.78Q14.45 12.02 16.26 10.84Q18.07 9.67 19.19 9.60L19.19 9.60Q21.20 9.49 22.34 10.26Q23.48 11.04 23.95 12.32Q24.43 13.60 24.43 15.04L24.43 15.04Q24.43 15.40 24.41 15.71Q24.39 16.03 24.36 16.34L24.36 16.34Q24.18 17.96 23.66 20.04Q23.13 22.11 22.53 23.90L22.53 23.90Q22.46 24.08 22.32 24.52Q22.18 24.96 22.29 24.96L22.29 24.96Q22.32 24.96 22.64 24.50L22.64 24.50Q23.52 23.06 24.34 21.67Q25.17 20.28 26.12 18.81L26.12 18.81Q27.52 16.63 29.19 14.41Q30.86 12.20 32.55 10.44L32.55 10.44Q33.22 9.74 33.94 9.39Q34.66 9.03 35.29 9.03L35.29 9.03Q35.99 9.03 36.47 9.51Q36.94 9.98 36.94 10.97L36.94 10.97Q36.94 11.21 36.89 11.51Q36.84 11.81 36.77 12.16L36.77 12.16Q36.35 13.85 35.78 15.26Q35.22 16.66 34.66 18.01Q34.10 19.37 33.66 20.84Q33.22 22.32 33.04 24.11L33.04 24.11Q33.01 24.43 32.99 24.71Q32.97 24.99 32.97 25.24L32.97 25.24Q32.97 26.43 33.32 26.98Q33.67 27.52 34.24 27.52L34.24 27.52Q34.90 27.52 35.80 26.94Q36.70 26.36 37.61 25.50Q38.52 24.64 39.26 23.81Q40.00 22.99 40.35 22.50L40.35 22.50Q40.42 22.39 40.56 22.39L40.56 22.39Q40.70 22.39 40.81 22.50Q40.91 22.60 40.81 22.78L40.81 22.78Q40.35 23.48 39.53 24.41Q38.70 25.34 37.80 26.20Q36.91 27.07 36.20 27.59L36.20 27.59Q35.68 27.98 34.99 28.23Q34.31 28.47 33.64 28.47L33.64 28.47Q32.87 28.47 32.23 28.09Q31.60 27.70 31.35 26.75L31.35 26.75Q31.25 26.40 31.21 26.01Q31.18 25.62 31.18 25.20L31.18 25.20Q31.18 23.73 31.60 21.92Q32.02 20.11 32.65 18.30Q33.29 16.49 33.87 14.99Q34.45 13.50 34.76 12.62L34.76 12.62Q35.01 12.13 35.01 11.71L35.01 11.71Q35.01 10.97 34.38 10.97L34.38 10.97Q33.85 10.97 33.15 11.56L33.15 11.56Q32.13 12.44 30.91 13.85Q29.70 15.26 28.45 16.94Q27.21 18.63 26.03 20.40Q24.85 22.18 23.88 23.81Q22.92 25.45 22.32 26.71L22.32 26.71Q22.07 27.24 21.76 27.24L21.76 27.24Q21.51 27.24 21.28 26.93Q21.06 26.61 20.93 26.24Q20.81 25.87 20.88 25.73L20.88 25.73Q21.34 24.61 21.72 22.97Q22.11 21.34 22.36 19.49Q22.60 17.65 22.60 15.96L22.60 15.96Q22.60 13.71 22.04 12.14Q21.48 10.58 20.07 10.58L20.07 10.58Q19.16 10.58 17.75 11.35Q16.34 12.13 14.71 13.43Q13.08 14.73 11.35 16.31L11.35 16.31Q11.04 17.08 10.42 18.56Q9.81 20.04 8.98 21.83Q8.15 23.62 7.15 25.40Q6.15 27.17 5.10 28.51L5.10 28.51Q4.15 29.70 3.20 30.26Q2.25 30.83 1.44 30.83ZM1.62 29.60L1.62 29.60Q2.53 29.60 3.50 28.63Q4.46 27.66 5.43 26.17Q6.40 24.68 7.21 23.06Q8.01 21.44 8.59 20.07Q9.17 18.70 9.42 18.03L9.42 18.03Q8.44 18.98 7.35 20.12Q6.26 21.27 5.22 22.44Q4.18 23.62 3.34 24.64Q2.50 25.66 2.00 26.33L2.00 26.33Q1.44 27.10 1.18 27.72Q0.91 28.33 0.91 28.79L0.91 28.79Q0.91 29.60 1.62 29.60ZM42.99 28.51L42.99 28.51Q42.00 28.51 41.27 28.05L41.27 28.05Q40.04 27.31 40.04 25.38L40.04 25.38Q40.04 24.57 40.32 23.52L40.32 23.52Q40.56 22.64 41.20 21.60Q41.83 20.56 42.69 19.61Q43.55 18.66 44.57 18.07Q45.59 17.47 46.61 17.47L46.61 17.47Q47.03 17.47 47.35 17.58L47.35 17.58Q47.77 17.72 48.07 18.08Q48.37 18.45 48.37 19.02L48.37 19.02Q48.37 19.61 48.07 19.68Q47.77 19.75 47.77 19.54L47.77 19.54Q47.77 19.47 47.79 19.40Q47.80 19.33 47.80 19.30L47.80 19.30Q47.80 19.02 47.65 18.79Q47.49 18.56 47.07 18.56L47.07 18.56Q46.50 18.56 45.68 19.16Q44.85 19.75 43.99 20.76Q43.13 21.76 42.48 22.95Q41.83 24.15 41.62 25.34L41.62 25.34Q41.58 25.52 41.57 25.68Q41.55 25.84 41.55 26.01L41.55 26.01Q41.55 26.82 41.92 27.36Q42.29 27.91 43.09 27.91L43.09 27.91Q44.08 27.91 44.99 27.15Q45.91 26.40 46.63 25.34Q47.35 24.29 47.70 23.48L47.70 23.48Q47.98 22.85 48.09 22.39Q48.19 21.93 48.19 21.62L48.19 21.62Q48.19 21.34 48.14 21.13Q48.09 20.91 48.02 20.77L48.02 20.77Q47.95 20.56 47.95 20.46L47.95 20.46Q47.95 20.18 48.17 20.00Q48.40 19.82 48.65 19.82L48.65 19.82Q48.86 19.82 49.11 19.97L49.11 19.97Q49.39 20.04 49.88 20.07Q50.37 20.11 50.93 20.11L50.93 20.11Q51.53 20.11 52.15 20.07Q52.76 20.04 53.22 19.93L53.22 19.93Q53.29 19.90 53.43 19.90L53.43 19.90Q53.67 19.90 53.67 20.04L53.67 20.04Q53.67 20.18 53.43 20.28L53.43 20.28Q52.20 20.84 51.23 20.88Q50.26 20.91 49.56 20.91L49.56 20.91Q49.63 21.79 49.18 22.79Q48.72 23.80 48.23 24.57L48.23 24.57Q47.63 25.45 46.86 26.36Q46.08 27.28 45.13 27.89Q44.18 28.51 42.99 28.51ZM54.52 28.47L54.52 28.47Q53.89 28.47 53.38 28.19Q52.87 27.91 52.62 27.14L52.62 27.14Q52.58 27.03 52.57 26.93Q52.55 26.82 52.55 26.68L52.55 26.68Q52.55 25.98 52.87 24.92Q53.18 23.87 53.64 22.88L53.64 22.88Q53.43 23.16 53.15 23.57Q52.87 23.97 52.34 24.61L52.34 24.61Q52.20 24.75 52.02 24.75L52.02 24.75Q51.78 24.75 51.78 24.46L51.78 24.46Q51.78 24.25 51.92 24.11L51.92 24.11Q52.83 22.95 53.55 22.04Q54.27 21.13 54.62 20.49L54.62 20.49Q54.62 20.42 54.83 20.05Q55.05 19.68 55.40 19.02L55.40 19.02Q55.12 19.05 54.92 19.07Q54.73 19.09 54.59 19.09L54.59 19.09Q54.34 19.09 54.17 18.88Q53.99 18.66 54.13 18.35L54.13 18.35Q54.31 17.86 54.90 17.79Q55.50 17.72 55.96 17.68L55.96 17.68Q55.99 17.61 56.10 17.61L56.10 17.61Q56.52 16.84 56.91 16.10Q57.30 15.36 57.56 14.87Q57.82 14.38 57.82 14.34L57.82 14.34Q58.53 13.22 58.74 12.85Q58.95 12.48 59.30 12.41L59.30 12.41Q59.69 12.37 60.12 12.44Q60.56 12.51 60.70 12.76L60.70 12.76Q60.81 12.90 60.81 13.11L60.81 13.11Q60.81 13.43 60.67 13.73Q60.53 14.02 60.39 14.20L60.39 14.20Q60.25 14.45 60.02 14.53Q59.79 14.62 59.61 14.97L59.61 14.97Q59.26 15.64 58.84 16.42Q58.42 17.19 57.96 17.89L57.96 17.89L58.38 17.86Q59.23 17.79 59.98 17.68Q60.74 17.58 61.72 17.61L61.72 17.61Q61.90 17.61 62.09 17.66Q62.29 17.72 62.29 17.82L62.29 17.82Q62.29 17.96 61.37 18.21L61.37 18.21Q61.02 18.35 59.84 18.51Q58.67 18.66 57.44 18.81L57.44 18.81Q57.08 19.47 56.80 19.91Q56.52 20.35 56.42 20.56L56.42 20.56Q55.64 22.18 55.03 23.50Q54.41 24.82 54.34 25.66L54.34 25.66Q54.31 25.80 54.31 25.92Q54.31 26.05 54.31 26.19L54.31 26.19Q54.31 27.59 55.22 27.59L55.22 27.59Q55.78 27.59 56.66 26.98Q57.54 26.36 58.45 25.47Q59.37 24.57 60.12 23.74Q60.88 22.92 61.16 22.50L61.16 22.50Q61.27 22.39 61.37 22.39L61.37 22.39Q61.51 22.39 61.60 22.50Q61.69 22.60 61.62 22.78L61.62 22.78Q61.30 23.37 60.55 24.27Q59.79 25.17 58.86 26.06Q57.93 26.96 57.05 27.59L57.05 27.59Q56.59 27.94 55.91 28.21Q55.22 28.47 54.52 28.47ZM63.34 28.47L63.34 28.47Q61.86 28.47 61.28 27.73Q60.70 27.00 60.70 25.91L60.70 25.91Q60.70 24.89 61.18 23.34Q61.65 21.79 62.43 20.00Q63.20 18.21 64.10 16.43Q64.99 14.66 65.89 13.16Q66.79 11.67 67.45 10.76L67.45 10.76Q68.12 9.88 68.89 9.00Q69.67 8.12 70.62 7.52Q71.57 6.92 72.76 6.92L72.76 6.92Q73.57 6.92 74.15 7.36Q74.73 7.80 74.73 8.68L74.73 8.68Q74.73 9.03 74.61 9.49Q74.48 9.95 74.20 10.44L74.20 10.44Q72.06 14.17 69.09 17.33Q66.12 20.49 62.81 23.20L62.81 23.20Q62.67 23.73 62.55 24.15Q62.43 24.57 62.36 24.82L62.36 24.82Q62.32 24.99 62.32 25.19Q62.32 25.38 62.32 25.55L62.32 25.55Q62.32 26.40 62.60 27.03Q62.88 27.66 63.55 27.66L63.55 27.66Q64.18 27.66 65.12 27.05Q66.05 26.43 67.00 25.54Q67.95 24.64 68.72 23.80Q69.49 22.95 69.81 22.50L69.81 22.50Q69.91 22.39 70.02 22.39L70.02 22.39Q70.16 22.39 70.25 22.53Q70.34 22.67 70.23 22.88L70.23 22.88Q69.88 23.48 69.11 24.36Q68.33 25.24 67.38 26.13Q66.43 27.03 65.56 27.70L65.56 27.70Q64.47 28.47 63.34 28.47ZM63.31 21.79L63.31 21.79Q64.64 20.88 66.08 19.42Q67.52 17.96 68.91 16.24Q70.30 14.52 71.44 12.83Q72.59 11.14 73.29 9.77L73.29 9.77Q73.50 9.39 73.59 9.09Q73.68 8.79 73.68 8.54L73.68 8.54Q73.68 7.87 73.11 7.87L73.11 7.87Q72.62 7.87 71.88 8.40L71.88 8.40Q69.98 9.88 68.37 12.18Q66.75 14.48 65.49 17.01Q64.22 19.54 63.31 21.79ZM72.41 28.51L72.41 28.51Q71.43 28.51 70.69 28.05L70.69 28.05Q69.46 27.31 69.46 25.38L69.46 25.38Q69.46 24.57 69.74 23.52L69.74 23.52Q69.98 22.64 70.62 21.60Q71.25 20.56 72.11 19.61Q72.97 18.66 73.99 18.07Q75.01 17.47 76.03 17.47L76.03 17.47Q76.45 17.47 76.77 17.58L76.77 17.58Q77.19 17.72 77.49 18.08Q77.79 18.45 77.79 19.02L77.79 19.02Q77.79 19.61 77.49 19.68Q77.19 19.75 77.19 19.54L77.19 19.54Q77.19 19.47 77.21 19.40Q77.23 19.33 77.23 19.30L77.23 19.30Q77.23 19.02 77.07 18.79Q76.91 18.56 76.49 18.56L76.49 18.56Q75.92 18.56 75.10 19.16Q74.27 19.75 73.41 20.76Q72.55 21.76 71.90 22.95Q71.25 24.15 71.04 25.34L71.04 25.34Q71.00 25.52 70.99 25.68Q70.97 25.84 70.97 26.01L70.97 26.01Q70.97 26.82 71.34 27.36Q71.71 27.91 72.52 27.91L72.52 27.91Q73.50 27.91 74.41 27.15Q75.33 26.40 76.05 25.34Q76.77 24.29 77.12 23.48L77.12 23.48Q77.40 22.85 77.51 22.39Q77.61 21.93 77.61 21.62L77.61 21.62Q77.61 21.34 77.56 21.13Q77.51 20.91 77.44 20.77L77.44 20.77Q77.37 20.56 77.37 20.46L77.37 20.46Q77.37 20.18 77.59 20.00Q77.82 19.82 78.07 19.82L78.07 19.82Q78.28 19.82 78.53 19.97L78.53 19.97Q78.81 20.04 79.30 20.07Q79.79 20.11 80.35 20.11L80.35 20.11Q80.95 20.11 81.57 20.07Q82.18 20.04 82.64 19.93L82.64 19.93Q82.71 19.90 82.85 19.90L82.85 19.90Q83.10 19.90 83.10 20.04L83.10 20.04Q83.10 20.18 82.85 20.28L82.85 20.28Q81.62 20.84 80.65 20.88Q79.69 20.91 78.98 20.91L78.98 20.91Q79.05 21.79 78.60 22.79Q78.14 23.80 77.65 24.57L77.65 24.57Q77.05 25.45 76.28 26.36Q75.50 27.28 74.55 27.89Q73.60 28.51 72.41 28.51ZM92.02 28.23L92.02 28.23Q91.36 28.23 90.79 27.93Q90.23 27.63 89.98 26.89L89.98 26.89Q89.74 26.08 89.74 24.89L89.74 24.89Q89.74 24.29 89.83 23.67Q89.91 23.06 90.06 22.60L90.06 22.60Q89.88 22.92 89.39 23.78Q88.90 24.64 88.16 25.64Q87.42 26.64 86.49 27.36Q85.56 28.09 84.47 28.09L84.47 28.09Q83.06 28.09 82.53 27.36Q82.01 26.64 82.01 25.62L82.01 25.62Q82.01 24.39 82.52 23.08Q83.03 21.76 83.55 20.98L83.55 20.98Q83.80 20.63 84.29 19.93Q84.78 19.23 85.26 18.61Q85.73 18.00 85.91 17.93L85.91 17.93Q86.12 17.86 86.36 17.82Q86.61 17.79 86.86 17.79L86.86 17.79Q87.42 17.79 87.77 18.00L87.77 18.00Q88.12 18.10 88.12 18.35L88.12 18.35Q88.12 18.45 87.95 18.63L87.95 18.63Q87.56 18.95 86.72 19.90Q85.87 20.84 85.05 22.06Q84.22 23.27 83.80 24.46L83.80 24.46Q83.34 25.59 83.34 26.33L83.34 26.33Q83.34 27.38 84.11 27.38L84.11 27.38Q84.85 27.38 86.22 26.29L86.22 26.29Q87.21 25.52 88.12 24.36Q89.04 23.20 89.83 21.92Q90.62 20.63 91.25 19.54L91.25 19.54Q91.36 19.30 91.85 19.30L91.85 19.30Q92.45 19.30 93.03 19.56Q93.61 19.82 93.36 20.18L93.36 20.18Q92.34 21.83 91.81 23.73L91.81 23.73Q91.71 24.15 91.58 24.76Q91.46 25.38 91.46 25.98L91.46 25.98Q91.46 26.61 91.67 27.07Q91.88 27.52 92.45 27.52L92.45 27.52Q92.73 27.52 93.03 27.43Q93.32 27.35 93.71 27.10L93.71 27.10Q95.05 26.40 96.33 25.19Q97.61 23.97 98.60 22.48Q99.58 20.98 99.90 19.54L99.90 19.54Q100.00 19.12 100.00 18.52L100.00 18.52Q100.00 17.82 99.77 17.17Q99.55 16.52 98.95 16.27L98.95 16.27Q98.74 16.20 98.49 16.19Q98.25 16.17 97.96 16.20L97.96 16.20L97.89 16.20Q97.72 16.20 97.72 16.03L97.72 16.03Q97.72 15.85 97.89 15.78L97.89 15.78Q98.32 15.68 98.98 15.68L98.98 15.68Q99.62 15.68 100.27 15.89Q100.92 16.10 101.16 16.70L101.16 16.70Q101.44 17.36 101.44 18.03L101.44 18.03Q101.44 19.33 100.69 20.81Q99.93 22.29 98.77 23.66L98.77 23.66Q97.86 24.78 96.73 25.77Q95.61 26.75 94.80 27.31L94.80 27.31Q94.34 27.66 93.59 27.94Q92.83 28.23 92.02 28.23ZM115.93 29.74L115.93 29.74Q114.10 29.74 112.57 29.12Q111.04 28.51 110.14 27.22Q109.25 25.94 109.25 23.94L109.25 23.94Q109.25 22.81 109.56 21.51L109.56 21.51Q110.06 19.44 111.20 17.36Q112.34 15.29 113.94 13.46Q115.54 11.63 117.44 10.21Q119.34 8.79 121.36 7.96Q123.38 7.14 125.38 7.14L125.38 7.14Q125.98 7.14 126.61 7.24L126.61 7.24Q128.02 7.49 128.70 8.28Q129.39 9.07 129.39 10.09L129.39 10.09Q129.39 11.28 128.62 12.48Q127.84 13.67 126.59 14.75Q125.35 15.82 123.89 16.66Q122.43 17.50 121.02 18.03Q119.62 18.56 118.53 18.63L118.53 18.63Q117.86 18.66 117.86 18.24L117.86 18.24Q117.86 18.03 118.09 17.80Q118.32 17.58 118.74 17.54L118.74 17.54Q121.48 17.29 123.85 15.87Q126.22 14.45 127.49 11.99L127.49 11.99Q127.77 11.46 127.93 10.91Q128.09 10.37 128.09 9.88L128.09 9.88Q128.09 9.10 127.65 8.56Q127.21 8.01 126.12 8.01L126.12 8.01Q124.92 8.01 123.31 8.73Q121.69 9.46 119.92 10.76Q118.14 12.06 116.44 13.83Q114.73 15.61 113.38 17.70Q112.02 19.79 111.29 22.11L111.29 22.11Q110.83 23.52 110.83 24.71L110.83 24.71Q110.83 26.85 112.31 27.86Q113.78 28.86 116.14 28.86L116.14 28.86Q118.18 28.86 120.62 28.16Q123.06 27.45 125.38 25.99Q127.70 24.53 129.28 22.29L129.28 22.29Q129.39 22.14 129.53 22.14L129.53 22.14Q129.67 22.14 129.79 22.29Q129.92 22.43 129.81 22.57L129.81 22.57Q127.98 25.10 125.61 26.68Q123.24 28.26 120.71 29.00Q118.18 29.74 115.93 29.74ZM133.68 28.54L133.68 28.54Q133.08 28.54 132.62 28.28Q132.17 28.01 131.99 27.28L131.99 27.28Q131.88 26.89 131.88 26.50L131.88 26.50Q131.88 25.45 132.43 24.45Q132.97 23.45 133.71 22.58Q134.45 21.72 134.98 21.13L134.98 21.13Q135.26 20.84 135.63 20.39Q136.00 19.93 136.00 19.47L136.00 19.47Q136.00 19.19 135.72 18.93Q135.43 18.66 134.70 18.56L134.70 18.56Q134.27 18.49 133.91 18.44Q133.54 18.38 133.15 18.38L133.15 18.38Q132.17 19.72 131.23 21.07Q130.30 22.43 129.25 23.73L129.25 23.73Q129.00 23.97 128.83 23.97L128.83 23.97Q128.62 23.97 128.62 23.76L128.62 23.76Q128.62 23.55 128.83 23.34L128.83 23.34Q130.72 21.02 132.09 18.38L132.09 18.38Q131.92 18.38 131.57 18.37Q131.22 18.35 131.01 18.31L131.01 18.31Q130.76 18.24 130.62 18.10Q130.48 17.96 130.48 17.82L130.48 17.82Q130.48 17.61 130.65 17.58L130.65 17.58Q131.11 17.43 131.64 17.15Q132.17 16.87 132.62 16.42L132.62 16.42Q133.11 15.92 133.54 15.38Q133.96 14.83 134.20 14.55L134.20 14.55Q134.45 14.38 134.73 14.38L134.73 14.38Q134.91 14.38 135.07 14.48Q135.22 14.59 135.22 14.80L135.22 14.80Q135.22 15.04 135.01 15.43L135.01 15.43Q134.70 15.92 134.33 16.52Q133.96 17.12 133.64 17.61L133.64 17.61Q134.27 17.65 134.91 17.68Q135.54 17.72 136.21 17.72L136.21 17.72Q136.56 17.72 136.89 17.70Q137.23 17.68 137.58 17.68L137.58 17.68Q138.63 17.68 138.63 18.21L138.63 18.21Q138.63 18.56 138.26 19.07Q137.89 19.58 137.37 20.18L137.37 20.18Q136.17 21.55 135.33 23.06Q134.49 24.57 134.20 25.38L134.20 25.38Q133.92 26.22 133.92 26.64L133.92 26.64Q133.92 27.49 134.59 27.49L134.59 27.49Q135.19 27.49 136.05 26.89Q136.91 26.29 137.82 25.43Q138.74 24.57 139.48 23.74Q140.21 22.92 140.53 22.50L140.53 22.50Q140.60 22.39 140.74 22.39L140.74 22.39Q140.88 22.39 140.99 22.51Q141.09 22.64 140.99 22.81L140.99 22.81Q140.60 23.41 139.86 24.31Q139.13 25.20 138.21 26.08Q137.30 26.96 136.42 27.59L136.42 27.59Q135.96 27.94 135.17 28.24Q134.38 28.54 133.68 28.54ZM143.62 28.65L143.62 28.65Q142.04 28.65 140.88 27.91Q139.72 27.17 139.72 25.66L139.72 25.66Q139.72 24.85 140.21 23.69L140.21 23.69Q140.57 22.88 141.52 21.83Q142.46 20.77 143.73 19.77Q145.00 18.77 146.30 18.12Q147.60 17.47 148.65 17.47L148.65 17.47Q149.04 17.47 149.35 17.58L149.35 17.58Q149.95 17.79 150.18 18.24Q150.41 18.70 150.41 19.19L150.41 19.19Q150.41 19.65 150.27 20.07Q150.13 20.49 149.92 20.81L149.92 20.81Q149.28 21.76 148.11 22.50Q146.93 23.23 145.72 23.66Q144.50 24.08 143.73 24.15L143.73 24.15L143.66 24.15Q143.20 24.15 143.20 23.87L143.20 23.87Q143.20 23.69 143.48 23.69L143.48 23.69Q144.33 23.62 145.61 22.90Q146.89 22.18 147.88 21.41L147.88 21.41Q148.30 21.06 148.88 20.42Q149.46 19.79 149.46 19.19L149.46 19.19Q149.46 18.56 148.86 18.56L148.86 18.56Q148.55 18.56 148.21 18.70Q147.88 18.84 147.67 18.91L147.67 18.91Q146.65 19.40 145.42 20.44Q144.19 21.48 143.18 22.76Q142.18 24.04 141.80 25.34L141.80 25.34Q141.69 25.62 141.66 25.89Q141.62 26.15 141.62 26.40L141.62 26.40Q141.62 27.24 142.17 27.59Q142.71 27.94 143.48 27.94L143.48 27.94Q144.64 27.94 145.87 27.43Q147.10 26.93 148.26 26.12Q149.42 25.31 150.39 24.38Q151.36 23.45 152.03 22.57L152.03 22.57Q152.13 22.43 152.27 22.41Q152.41 22.39 152.45 22.46L152.45 22.46Q152.59 22.50 152.59 22.65Q152.59 22.81 152.52 22.95L152.52 22.95Q151.53 24.32 150.14 25.62Q148.76 26.93 147.09 27.79Q145.42 28.65 143.62 28.65ZM155.19 28.65L155.19 28.65Q153.61 28.65 152.45 27.91Q151.29 27.17 151.29 25.66L151.29 25.66Q151.29 24.85 151.78 23.69L151.78 23.69Q152.13 22.88 153.08 21.83Q154.03 20.77 155.29 19.77Q156.56 18.77 157.86 18.12Q159.16 17.47 160.22 17.47L160.22 17.47Q160.60 17.47 160.92 17.58L160.92 17.58Q161.52 17.79 161.74 18.24Q161.97 18.70 161.97 19.19L161.97 19.19Q161.97 19.65 161.83 20.07Q161.69 20.49 161.48 20.81L161.48 20.81Q160.85 21.76 159.67 22.50Q158.49 23.23 157.28 23.66Q156.07 24.08 155.29 24.15L155.29 24.15L155.22 24.15Q154.77 24.15 154.77 23.87L154.77 23.87Q154.77 23.69 155.05 23.69L155.05 23.69Q155.89 23.62 157.17 22.90Q158.46 22.18 159.44 21.41L159.44 21.41Q159.86 21.06 160.44 20.42Q161.02 19.79 161.02 19.19L161.02 19.19Q161.02 18.56 160.43 18.56L160.43 18.56Q160.11 18.56 159.78 18.70Q159.44 18.84 159.23 18.91L159.23 18.91Q158.21 19.40 156.98 20.44Q155.75 21.48 154.75 22.76Q153.75 24.04 153.36 25.34L153.36 25.34Q153.26 25.62 153.22 25.89Q153.19 26.15 153.19 26.40L153.19 26.40Q153.19 27.24 153.73 27.59Q154.27 27.94 155.05 27.94L155.05 27.94Q156.21 27.94 157.44 27.43Q158.67 26.93 159.83 26.12Q160.99 25.31 161.96 24.38Q162.92 23.45 163.59 22.57L163.59 22.57Q163.70 22.43 163.84 22.41Q163.98 22.39 164.01 22.46L164.01 22.46Q164.15 22.50 164.15 22.65Q164.15 22.81 164.08 22.95L164.08 22.95Q163.10 24.32 161.71 25.62Q160.32 26.93 158.65 27.79Q156.98 28.65 155.19 28.65ZM175.79 33.53L175.79 33.53Q174.49 33.53 173.31 32.60Q172.13 31.67 171.15 30.14Q170.16 28.61 169.48 26.80Q168.79 24.99 168.48 23.27L168.48 23.27Q167.28 24.96 166.42 26.36Q165.56 27.77 165.17 27.98L165.17 27.98Q165.00 28.09 164.36 28.33Q163.73 28.58 163.41 28.58L163.41 28.58Q163.17 28.58 163.27 28.33L163.27 28.33Q163.34 28.19 163.62 27.43Q163.91 26.68 164.29 25.55Q164.68 24.43 165.12 23.20Q165.56 21.97 165.98 20.88L165.98 20.88Q165.63 21.27 165.17 21.85Q164.71 22.43 164.12 23.30L164.12 23.30Q164.01 23.48 163.77 23.48L163.77 23.48Q163.52 23.48 163.52 23.27L163.52 23.27Q163.52 23.06 163.77 22.78L163.77 22.78Q164.26 22.18 164.82 21.41Q165.38 20.63 165.91 19.90Q166.44 19.16 166.75 18.70L166.75 18.70Q166.23 18.42 166.23 17.96L166.23 17.96Q166.23 17.68 166.45 17.52Q166.68 17.36 166.93 17.54L166.93 17.54Q167.07 17.61 167.17 17.61L167.17 17.61Q167.77 16.03 168.69 14.18Q169.60 12.34 170.80 10.67Q171.99 9.00 173.38 7.94Q174.77 6.89 176.31 6.89L176.31 6.89Q176.49 6.89 176.68 6.91Q176.88 6.92 177.05 6.96L177.05 6.96Q177.26 6.99 177.46 7.10Q177.65 7.21 177.83 7.28L177.83 7.28Q178.63 7.73 178.63 8.61L178.63 8.61Q178.63 9.24 178.28 10.00Q177.93 10.76 177.42 11.49Q176.91 12.23 176.42 12.83Q175.93 13.43 175.65 13.74L175.65 13.74Q173.92 15.50 171.94 16.94Q169.95 18.38 168.48 18.98L168.48 18.98Q167.91 20.18 167.42 21.42Q166.93 22.67 166.59 23.71Q166.26 24.75 166.09 25.31L166.09 25.31Q166.68 24.57 167.23 23.81Q167.77 23.06 168.33 22.32L168.33 22.32Q168.33 22.18 168.32 22.04Q168.30 21.90 168.30 21.76L168.30 21.76Q168.30 21.55 168.32 21.35Q168.33 21.16 168.37 20.98L168.37 20.98Q168.41 20.77 168.55 20.56Q168.69 20.35 168.83 20.35L168.83 20.35Q169.04 20.35 169.07 20.77L169.07 20.77Q169.11 20.88 169.14 21.02Q169.18 21.16 169.21 21.30L169.21 21.30Q169.67 20.77 170.36 20.00Q171.04 19.23 171.78 18.52Q172.52 17.82 173.12 17.54L173.12 17.54Q173.61 17.29 174.10 17.29L174.10 17.29Q174.59 17.29 174.91 17.52Q175.22 17.75 175.22 18.07L175.22 18.07Q175.22 18.56 174.49 18.91L174.49 18.91Q173.92 19.16 172.99 19.61Q172.06 20.07 171.08 20.70Q170.09 21.34 169.39 22.07L169.39 22.07Q169.92 23.94 170.43 25.27Q170.94 26.61 171.66 27.82Q172.38 29.03 173.57 30.55L173.57 30.55Q174.38 31.46 175.22 32.02Q176.07 32.58 176.74 32.58L176.74 32.58Q177.33 32.58 177.56 32.32Q177.79 32.06 177.79 31.67L177.79 31.67Q177.79 31.21 177.56 30.67Q177.33 30.12 177.09 29.77L177.09 29.77Q176.91 29.56 176.91 29.39L176.91 29.39Q176.91 29.28 177.05 29.28L177.05 29.28Q177.37 29.28 177.72 29.56L177.72 29.56Q177.90 29.77 178.19 30.39Q178.49 31.00 178.49 31.46L178.49 31.46Q178.49 32.16 178.00 32.64Q177.51 33.11 176.88 33.32Q176.24 33.53 175.79 33.53ZM168.90 17.79L168.90 17.79Q170.41 17.12 171.96 15.96Q173.50 14.80 174.84 13.22L174.84 13.22Q175.01 13.01 175.44 12.43Q175.86 11.85 176.37 11.11Q176.88 10.37 177.23 9.63Q177.58 8.89 177.58 8.40L177.58 8.40Q177.58 8.05 177.37 7.91L177.37 7.91Q177.26 7.80 177.05 7.80L177.05 7.80Q176.49 7.80 175.75 8.40L175.75 8.40Q173.40 10.23 171.83 12.50Q170.27 14.76 168.90 17.79ZM195.75 30.26L195.75 30.26Q193.75 30.26 192.41 29.49Q191.08 28.72 190.83 27.10L190.83 27.10L190.83 26.89Q190.55 27.28 190.18 27.80Q189.81 28.33 189.41 28.70Q189.00 29.07 188.58 29.07L188.58 29.07Q188.51 29.07 188.18 29.00Q187.84 28.93 187.54 28.82Q187.25 28.72 187.21 28.58L187.21 28.58Q187.11 27.91 187.54 26.66Q187.98 25.41 188.70 23.90Q189.43 22.39 190.22 20.88Q191.01 19.37 191.67 18.16Q192.34 16.94 192.62 16.31L192.62 16.31Q192.83 15.92 192.91 15.66Q192.98 15.40 192.98 15.26L192.98 15.26Q192.98 15.04 192.91 14.90L192.91 14.90Q192.98 14.48 193.41 13.78Q193.85 13.08 194.52 12.37Q195.19 11.67 195.96 11.20Q196.74 10.72 197.40 10.72L197.40 10.72Q197.62 10.72 198.05 10.84Q198.49 10.97 198.90 11.21Q199.30 11.46 199.41 11.92L199.41 11.92Q199.44 12.02 199.44 12.13L199.44 12.13Q199.44 12.23 199.37 12.23L199.37 12.23Q199.30 12.23 199.18 12.18Q199.06 12.13 198.99 12.13L198.99 12.13Q198.18 12.13 197.23 12.90Q196.28 13.67 195.28 14.97Q194.28 16.27 193.33 17.82Q192.38 19.37 191.52 20.93Q190.66 22.50 190.02 23.81Q189.39 25.13 189.04 25.94L189.04 25.94Q188.76 26.71 188.76 27.03L188.76 27.03Q188.76 27.52 189.14 27.52L189.14 27.52Q189.64 27.52 190.20 26.85L190.20 26.85Q190.59 26.40 190.92 25.99Q191.25 25.59 191.50 25.66L191.50 25.66Q191.99 25.66 192.17 25.92Q192.34 26.19 192.38 26.54Q192.41 26.89 192.45 27.17L192.45 27.17Q192.69 28.26 193.59 28.98Q194.49 29.70 196.10 29.70L196.10 29.70Q197.83 29.70 199.20 29.14Q200.57 28.58 201.38 27.58Q202.18 26.57 202.18 25.31L202.18 25.31Q202.18 24.43 201.76 23.46Q201.34 22.50 200.43 21.51L200.43 21.51Q199.65 20.60 198.70 19.79Q197.76 18.98 197.07 18.30Q196.38 17.61 196.38 17.12L196.38 17.12Q196.38 16.70 196.95 16.36Q197.51 16.03 197.86 16.03L197.86 16.03Q198.67 16.03 199.92 15.71Q201.17 15.40 202.50 14.85Q203.84 14.31 204.94 13.64Q206.05 12.97 206.58 12.30L206.58 12.30Q206.89 11.92 207.09 11.48Q207.28 11.04 207.28 10.62L207.28 10.62Q207.28 9.95 206.70 9.40Q206.12 8.86 204.75 8.61L204.75 8.61Q204.36 8.51 203.84 8.47Q203.31 8.44 202.71 8.44L202.71 8.44Q200.92 8.44 198.56 8.77Q196.21 9.10 193.78 9.74Q191.36 10.37 189.25 11.32Q187.14 12.27 185.79 13.52Q184.43 14.76 184.26 16.27L184.26 16.27Q184.19 17.15 184.68 17.61Q185.17 18.07 185.84 18.30Q186.51 18.52 186.89 18.74L186.89 18.74Q187.21 18.88 187.21 19.02L187.21 19.02Q187.21 19.19 186.82 19.19L186.82 19.19Q186.40 19.19 185.77 18.98Q185.14 18.77 184.52 18.33Q183.91 17.89 183.52 17.26Q183.13 16.63 183.24 15.78L183.24 15.78Q183.24 15.71 183.20 15.52Q183.17 15.33 183.17 15.22L183.17 15.22Q183.27 14.10 184.14 13.08Q185.00 12.06 186.17 11.21Q187.35 10.37 188.37 9.81L188.37 9.81Q189.50 9.21 191.08 8.70Q192.66 8.19 194.47 7.80Q196.28 7.42 198.14 7.19Q200.01 6.96 201.62 6.96L201.62 6.96Q203.34 6.96 204.65 7.24L204.65 7.24Q206.40 7.63 207.35 8.61Q208.30 9.60 208.30 10.79L208.30 10.79Q208.27 12.09 207.51 13.06Q206.75 14.02 205.56 14.69Q204.36 15.36 202.98 15.80Q201.59 16.24 200.25 16.45Q198.92 16.66 197.93 16.70L197.93 16.70Q199.41 17.58 200.87 18.65Q202.33 19.72 203.29 20.98Q204.26 22.25 204.26 23.76L204.26 23.76Q204.26 24.61 203.89 25.50Q203.52 26.40 202.71 27.42L202.71 27.42Q201.66 28.72 199.78 29.49Q197.90 30.26 195.75 30.26ZM217.16 28.47L217.16 28.47Q216.56 28.47 216.05 28.19Q215.54 27.91 215.30 27.14L215.30 27.14Q215.19 26.82 215.19 26.26L215.19 26.26Q215.19 25.48 215.40 24.53Q215.61 23.59 215.86 22.92L215.86 22.92Q215.68 22.99 215.21 23.53Q214.73 24.08 214.05 24.83Q213.36 25.59 212.54 26.35Q211.71 27.10 210.83 27.59Q209.95 28.09 209.11 28.09L209.11 28.09Q208.55 28.09 207.91 27.75Q207.28 27.42 206.89 26.89L206.89 26.89Q206.37 26.19 206.37 25.45L206.37 25.45Q206.37 24.50 207.02 23.48Q207.67 22.46 208.71 21.49Q209.74 20.53 210.92 19.74Q212.10 18.95 213.17 18.40Q214.24 17.86 214.91 17.68L214.91 17.68Q215.61 17.47 216.49 17.47L216.49 17.47Q216.98 17.47 217.51 17.59Q218.04 17.72 218.39 18.00L218.39 18.00Q218.67 18.14 218.85 18.38Q219.02 18.63 219.02 18.91L219.02 18.91Q219.02 19.19 218.78 19.09L218.78 19.09Q218.49 18.66 218.02 18.54Q217.55 18.42 217.05 18.42L217.05 18.42Q215.65 18.42 213.96 19.33Q212.27 20.25 210.94 21.48L210.94 21.48Q210.52 21.83 209.79 22.69Q209.07 23.55 208.48 24.57Q207.88 25.59 207.88 26.43L207.88 26.43Q207.88 26.89 208.13 27.24L208.13 27.24Q208.27 27.49 208.58 27.49L208.58 27.49Q209.07 27.49 209.90 26.96Q210.73 26.43 211.60 25.68Q212.48 24.92 213.20 24.22Q213.92 23.52 214.24 23.20L214.24 23.20Q214.42 23.02 214.93 22.48Q215.44 21.93 216.03 21.30Q216.63 20.67 217.11 20.21Q217.58 19.75 217.72 19.75L217.72 19.75Q217.90 19.75 218.30 19.84Q218.71 19.93 218.99 20.11Q219.27 20.28 219.09 20.56L219.09 20.56Q218.18 21.90 217.63 23.36Q217.09 24.82 216.98 25.66L216.98 25.66Q216.95 25.80 216.95 25.92Q216.95 26.05 216.95 26.19L216.95 26.19Q216.95 27.59 217.93 27.59L217.93 27.59Q218.46 27.59 219.34 26.96Q220.22 26.33 221.13 25.45Q222.04 24.57 222.80 23.74Q223.56 22.92 223.84 22.50L223.84 22.50Q223.94 22.39 224.05 22.39L224.05 22.39Q224.19 22.39 224.29 22.51Q224.40 22.64 224.29 22.81L224.29 22.81Q223.91 23.45 223.17 24.32Q222.43 25.20 221.52 26.08Q220.60 26.96 219.72 27.59L219.72 27.59Q219.27 27.94 218.56 28.21Q217.86 28.47 217.16 28.47ZM217.72 40.14L217.72 40.14Q217.30 40.14 217.30 39.79L217.30 39.79Q217.30 39.65 217.40 39.40L217.40 39.40Q217.83 38.49 218.60 36.68Q219.37 34.87 220.30 32.53Q221.24 30.19 222.19 27.73L222.19 27.73Q223.03 25.55 223.82 23.48Q224.61 21.41 225.14 19.74Q225.67 18.07 225.67 17.15L225.67 17.15Q225.67 16.87 226.05 16.82Q226.44 16.77 226.79 16.77L226.79 16.77Q227.95 16.77 227.95 17.54L227.95 17.54Q227.95 18.17 227.25 19.19L227.25 19.19Q226.61 20.21 226.16 21.28Q225.70 22.36 225.24 23.48L225.24 23.48Q226.09 22.36 226.83 21.27Q227.56 20.18 228.55 19.40L228.55 19.40Q229.32 18.81 230.08 18.44Q230.83 18.07 231.71 18.07L231.71 18.07Q232.62 18.07 233.54 18.51Q234.45 18.95 234.59 19.90L234.59 19.90Q234.63 20.00 234.63 20.12Q234.63 20.25 234.63 20.35L234.63 20.35Q234.63 21.58 233.91 22.76Q233.19 23.94 232.20 24.85Q231.22 25.77 230.38 26.33L230.38 26.33Q229.67 26.75 228.67 27.24Q227.67 27.73 226.56 28.09Q225.45 28.44 224.43 28.44L224.43 28.44Q223.80 28.44 223.38 28.30L223.38 28.30Q222.92 29.35 222.33 31.02Q221.73 32.69 221.20 34.31L221.20 34.31Q220.95 35.01 221.03 35.45Q221.10 35.89 220.85 36.56L220.85 36.56Q220.64 37.26 220.39 37.91Q220.15 38.56 219.83 39.16L219.83 39.16Q219.76 39.30 219.39 39.54Q219.02 39.79 218.55 39.97Q218.07 40.14 217.72 40.14ZM223.66 27.73L223.66 27.73Q224.79 27.73 226.02 27.21Q227.25 26.68 228.44 25.80Q229.64 24.92 230.60 23.88Q231.57 22.85 232.17 21.86L232.17 21.86Q232.87 20.74 232.87 19.79L232.87 19.79Q232.87 18.70 231.92 18.70L231.92 18.70Q231.68 18.70 231.32 18.79Q230.97 18.88 230.52 19.12L230.52 19.12Q228.65 20.11 227.46 21.42Q226.26 22.74 225.42 24.32Q224.58 25.91 223.66 27.73ZM238.67 28.47L238.67 28.47Q238.04 28.47 237.53 28.19Q237.02 27.91 236.77 27.14L236.77 27.14Q236.74 27.03 236.72 26.93Q236.70 26.82 236.70 26.68L236.70 26.68Q236.70 25.98 237.02 24.92Q237.34 23.87 237.79 22.88L237.79 22.88Q237.58 23.16 237.30 23.57Q237.02 23.97 236.49 24.61L236.49 24.61Q236.35 24.75 236.18 24.75L236.18 24.75Q235.93 24.75 235.93 24.46L235.93 24.46Q235.93 24.25 236.07 24.11L236.07 24.11Q236.98 22.95 237.70 22.04Q238.42 21.13 238.78 20.49L238.78 20.49Q238.78 20.42 238.99 20.05Q239.20 19.68 239.55 19.02L239.55 19.02Q239.27 19.05 239.07 19.07Q238.88 19.09 238.74 19.09L238.74 19.09Q238.49 19.09 238.32 18.88Q238.14 18.66 238.28 18.35L238.28 18.35Q238.46 17.86 239.06 17.79Q239.65 17.72 240.11 17.68L240.11 17.68Q240.15 17.61 240.25 17.61L240.25 17.61Q240.67 16.84 241.06 16.10Q241.45 15.36 241.71 14.87Q241.97 14.38 241.97 14.34L241.97 14.34Q242.68 13.22 242.89 12.85Q243.10 12.48 243.45 12.41L243.45 12.41Q243.84 12.37 244.28 12.44Q244.72 12.51 244.86 12.76L244.86 12.76Q244.96 12.90 244.96 13.11L244.96 13.11Q244.96 13.43 244.82 13.73Q244.68 14.02 244.54 14.20L244.54 14.20Q244.40 14.45 244.17 14.53Q243.94 14.62 243.77 14.97L243.77 14.97Q243.42 15.64 242.99 16.42Q242.57 17.19 242.12 17.89L242.12 17.89L242.54 17.86Q243.38 17.79 244.14 17.68Q244.89 17.58 245.88 17.61L245.88 17.61Q246.05 17.61 246.25 17.66Q246.44 17.72 246.44 17.82L246.44 17.82Q246.44 17.96 245.53 18.21L245.53 18.21Q245.17 18.35 244.00 18.51Q242.82 18.66 241.59 18.81L241.59 18.81Q241.24 19.47 240.96 19.91Q240.67 20.35 240.57 20.56L240.57 20.56Q239.80 22.18 239.18 23.50Q238.57 24.82 238.49 25.66L238.49 25.66Q238.46 25.80 238.46 25.92Q238.46 26.05 238.46 26.19L238.46 26.19Q238.46 27.59 239.37 27.59L239.37 27.59Q239.94 27.59 240.81 26.98Q241.69 26.36 242.61 25.47Q243.52 24.57 244.28 23.74Q245.03 22.92 245.31 22.50L245.31 22.50Q245.42 22.39 245.53 22.39L245.53 22.39Q245.67 22.39 245.75 22.50Q245.84 22.60 245.77 22.78L245.77 22.78Q245.45 23.37 244.70 24.27Q243.94 25.17 243.01 26.06Q242.08 26.96 241.20 27.59L241.20 27.59Q240.74 27.94 240.06 28.21Q239.37 28.47 238.67 28.47ZM250.80 15.89L250.80 15.89Q250.34 15.89 249.85 15.80Q249.36 15.71 249.36 15.15L249.36 15.15Q249.36 15.04 249.83 14.66Q250.31 14.27 250.82 13.87Q251.32 13.46 251.43 13.39L251.43 13.39Q252.03 12.90 252.17 12.90L252.17 12.90Q252.34 12.90 252.17 13.36Q251.99 13.81 251.99 14.17L251.99 14.17Q251.99 14.34 251.78 14.76Q251.57 15.18 251.29 15.54Q251.01 15.89 250.80 15.89ZM246.97 28.47L246.97 28.47Q246.33 28.47 245.82 28.19Q245.31 27.91 245.07 27.14L245.07 27.14Q245.03 27.03 245.02 26.93Q245.00 26.82 245.00 26.68L245.00 26.68Q245.00 25.98 245.31 24.92Q245.63 23.87 246.09 22.88L246.09 22.88Q245.88 23.16 245.60 23.57Q245.31 23.97 244.79 24.61L244.79 24.61Q244.65 24.75 244.47 24.75L244.47 24.75Q244.22 24.75 244.22 24.46L244.22 24.46Q244.22 24.25 244.37 24.11L244.37 24.11Q245.28 22.95 246.00 22.04Q246.72 21.13 247.07 20.49L247.07 20.49Q247.07 20.46 247.05 20.44Q247.04 20.42 247.04 20.39L247.04 20.39Q247.04 20.28 247.14 20.07L247.14 20.07Q247.42 19.23 247.72 18.65Q248.02 18.07 248.37 18.00L248.37 18.00Q248.44 18.00 248.51 17.98Q248.58 17.96 248.65 17.96L248.65 17.96Q249.04 17.96 249.36 18.14Q249.67 18.31 249.67 18.66L249.67 18.66Q249.67 18.98 249.44 19.44Q249.22 19.90 248.86 20.56L248.86 20.56Q248.09 22.18 247.48 23.50Q246.86 24.82 246.79 25.66L246.79 25.66Q246.76 25.80 246.76 25.92Q246.76 26.05 246.76 26.19L246.76 26.19Q246.76 27.59 247.67 27.59L247.67 27.59Q248.23 27.59 249.11 26.98Q249.99 26.36 250.90 25.47Q251.82 24.57 252.57 23.74Q253.33 22.92 253.61 22.50L253.61 22.50Q253.72 22.39 253.82 22.39L253.82 22.39Q253.96 22.39 254.05 22.50Q254.14 22.60 254.07 22.78L254.07 22.78Q253.75 23.37 252.99 24.27Q252.24 25.17 251.31 26.06Q250.38 26.96 249.50 27.59L249.50 27.59Q249.04 27.94 248.35 28.21Q247.67 28.47 246.97 28.47ZM253.93 29.88L253.93 29.88Q252.52 29.88 252.52 29.10L252.52 29.10Q252.52 28.54 253.12 27.94L253.12 27.94Q253.57 27.49 254.14 27.21Q254.70 26.93 254.84 26.93L254.84 26.93Q255.02 26.93 255.03 27.07Q255.05 27.21 254.88 27.28L254.88 27.28Q254.52 27.49 254.08 27.86Q253.64 28.23 253.64 28.65L253.64 28.65Q253.64 29.21 254.31 29.21L254.31 29.21Q255.12 29.21 256.00 28.74Q256.88 28.26 257.63 27.52Q258.39 26.78 258.86 26.03Q259.34 25.27 259.34 24.71L259.34 24.71Q259.34 24.25 259.02 23.87Q258.71 23.48 257.72 22.95L257.72 22.95Q257.05 22.57 256.44 22.14Q255.82 21.72 255.51 21.13L255.51 21.13Q255.23 21.62 254.79 22.30Q254.35 22.99 253.75 23.73L253.75 23.73Q253.54 23.94 253.33 23.94L253.33 23.94Q253.12 23.94 253.12 23.76L253.12 23.76Q253.12 23.66 253.29 23.41L253.29 23.41Q254.24 22.29 254.70 21.34Q255.16 20.39 255.33 19.90L255.33 19.90Q255.47 18.88 256.28 17.96Q257.09 17.05 258.25 16.36Q259.41 15.68 260.62 15.29Q261.83 14.90 262.78 14.90L262.78 14.90Q263.73 14.90 264.47 15.26Q265.21 15.61 265.21 16.38L265.21 16.38Q265.21 16.80 264.96 17.29L264.96 17.29Q264.65 17.96 263.91 18.49L263.91 18.49Q263.87 18.52 263.80 18.52L263.80 18.52Q263.52 18.52 263.52 18.28L263.52 18.28Q263.52 18.10 263.70 17.93L263.70 17.93Q263.98 17.68 264.15 17.33Q264.33 16.98 264.33 16.66L264.33 16.66Q264.33 16.03 263.59 16.03L263.59 16.03Q262.82 16.03 261.57 16.45Q260.32 16.87 259.27 17.54L259.27 17.54Q258.07 18.31 257.27 19.23Q256.46 20.14 256.46 20.84L256.46 20.84Q256.46 21.20 256.69 21.49Q256.91 21.79 257.58 22.18L257.58 22.18Q257.93 22.39 258.57 22.72Q259.20 23.06 259.66 23.34L259.66 23.34Q261.10 24.22 261.10 25.20L261.10 25.20Q261.10 26.01 260.39 26.84Q259.69 27.66 258.58 28.35Q257.48 29.03 256.25 29.46Q255.02 29.88 253.93 29.88ZM266.02 28.47L266.02 28.47Q265.38 28.47 264.88 28.19Q264.37 27.91 264.12 27.14L264.12 27.14Q264.08 27.03 264.07 26.93Q264.05 26.82 264.05 26.68L264.05 26.68Q264.05 25.98 264.37 24.92Q264.68 23.87 265.14 22.88L265.14 22.88Q264.93 23.16 264.65 23.57Q264.37 23.97 263.84 24.61L263.84 24.61Q263.70 24.75 263.52 24.75L263.52 24.75Q263.28 24.75 263.28 24.46L263.28 24.46Q263.28 24.25 263.42 24.11L263.42 24.11Q264.33 22.95 265.05 22.04Q265.77 21.13 266.12 20.49L266.12 20.49Q266.12 20.42 266.33 20.05Q266.54 19.68 266.90 19.02L266.90 19.02Q266.62 19.05 266.42 19.07Q266.23 19.09 266.09 19.09L266.09 19.09Q265.84 19.09 265.67 18.88Q265.49 18.66 265.63 18.35L265.63 18.35Q265.81 17.86 266.40 17.79Q267.00 17.72 267.46 17.68L267.46 17.68Q267.49 17.61 267.60 17.61L267.60 17.61Q268.02 16.84 268.41 16.10Q268.79 15.36 269.06 14.87Q269.32 14.38 269.32 14.34L269.32 14.34Q270.02 13.22 270.24 12.85Q270.45 12.48 270.80 12.41L270.80 12.41Q271.18 12.37 271.62 12.44Q272.06 12.51 272.20 12.76L272.20 12.76Q272.31 12.90 272.31 13.11L272.31 13.11Q272.31 13.43 272.17 13.73Q272.03 14.02 271.89 14.20L271.89 14.20Q271.75 14.45 271.52 14.53Q271.29 14.62 271.11 14.97L271.11 14.97Q270.76 15.64 270.34 16.42Q269.92 17.19 269.46 17.89L269.46 17.89L269.88 17.86Q270.73 17.79 271.48 17.68Q272.24 17.58 273.22 17.61L273.22 17.61Q273.40 17.61 273.59 17.66Q273.79 17.72 273.79 17.82L273.79 17.82Q273.79 17.96 272.87 18.21L272.87 18.21Q272.52 18.35 271.34 18.51Q270.17 18.66 268.94 18.81L268.94 18.81Q268.58 19.47 268.30 19.91Q268.02 20.35 267.92 20.56L267.92 20.56Q267.14 22.18 266.53 23.50Q265.91 24.82 265.84 25.66L265.84 25.66Q265.81 25.80 265.81 25.92Q265.81 26.05 265.81 26.19L265.81 26.19Q265.81 27.59 266.72 27.59L266.72 27.59Q267.28 27.59 268.16 26.98Q269.04 26.36 269.95 25.47Q270.87 24.57 271.62 23.74Q272.38 22.92 272.66 22.50L272.66 22.50Q272.77 22.39 272.87 22.39L272.87 22.39Q273.01 22.39 273.10 22.50Q273.19 22.60 273.12 22.78L273.12 22.78Q272.80 23.37 272.05 24.27Q271.29 25.17 270.36 26.06Q269.43 26.96 268.55 27.59L268.55 27.59Q268.09 27.94 267.41 28.21Q266.72 28.47 266.02 28.47ZM286.65 29.74L286.65 29.74Q284.82 29.74 283.29 29.12Q281.77 28.51 280.87 27.22Q279.97 25.94 279.97 23.94L279.97 23.94Q279.97 22.81 280.29 21.51L280.29 21.51Q280.78 19.44 281.92 17.36Q283.07 15.29 284.66 13.46Q286.26 11.63 288.16 10.21Q290.06 8.79 292.08 7.96Q294.10 7.14 296.11 7.14L296.11 7.14Q296.70 7.14 297.34 7.24L297.34 7.24Q298.74 7.49 299.43 8.28Q300.11 9.07 300.11 10.09L300.11 10.09Q300.11 11.28 299.34 12.48Q298.57 13.67 297.32 14.75Q296.07 15.82 294.61 16.66Q293.15 17.50 291.75 18.03Q290.34 18.56 289.25 18.63L289.25 18.63Q288.58 18.66 288.58 18.24L288.58 18.24Q288.58 18.03 288.81 17.80Q289.04 17.58 289.46 17.54L289.46 17.54Q292.20 17.29 294.58 15.87Q296.95 14.45 298.22 11.99L298.22 11.99Q298.50 11.46 298.65 10.91Q298.81 10.37 298.81 9.88L298.81 9.88Q298.81 9.10 298.37 8.56Q297.93 8.01 296.84 8.01L296.84 8.01Q295.65 8.01 294.03 8.73Q292.42 9.46 290.64 10.76Q288.87 12.06 287.16 13.83Q285.46 15.61 284.10 17.70Q282.75 19.79 282.01 22.11L282.01 22.11Q281.55 23.52 281.55 24.71L281.55 24.71Q281.55 26.85 283.03 27.86Q284.51 28.86 286.86 28.86L286.86 28.86Q288.90 28.86 291.34 28.16Q293.79 27.45 296.11 25.99Q298.43 24.53 300.01 22.29L300.01 22.29Q300.11 22.14 300.25 22.14L300.25 22.14Q300.39 22.14 300.52 22.29Q300.64 22.43 300.54 22.57L300.54 22.57Q298.71 25.10 296.33 26.68Q293.96 28.26 291.43 29.00Q288.90 29.74 286.65 29.74ZM300.04 28.58L300.04 28.58Q299.76 28.58 299.90 28.33L299.90 28.33Q299.97 28.12 300.27 27.28Q300.57 26.43 300.99 25.24Q301.41 24.04 301.87 22.79Q302.33 21.55 302.71 20.56L302.71 20.56Q302.47 20.88 301.96 21.48Q301.45 22.07 300.89 22.74Q300.32 23.41 299.83 23.90L299.83 23.90Q299.73 24.01 299.69 24.01L299.69 24.01Q299.59 24.01 299.59 23.80L299.59 23.80Q299.59 23.37 299.80 23.02L299.80 23.02Q300.57 22.04 301.29 21.18Q302.01 20.32 302.61 19.54L302.61 19.54Q302.26 19.33 302.26 19.02L302.26 19.02Q302.26 18.52 302.75 18.52L302.75 18.52Q302.96 18.52 303.07 18.59L303.07 18.59Q303.10 18.63 303.14 18.63Q303.17 18.63 303.21 18.70L303.21 18.70Q303.38 18.45 303.51 18.24Q303.63 18.03 303.73 17.79L303.73 17.79Q303.87 17.47 304.31 16.57Q304.75 15.68 305.42 14.45Q306.09 13.22 306.95 11.90Q307.81 10.58 308.81 9.44Q309.82 8.30 310.89 7.59Q311.96 6.89 313.08 6.89L313.08 6.89Q313.22 6.89 313.37 6.91Q313.51 6.92 313.65 6.96L313.65 6.96Q314.53 7.14 314.88 7.57Q315.23 8.01 315.23 8.61L315.23 8.61Q315.23 9.03 315.07 9.51Q314.91 9.98 314.63 10.44L314.63 10.44Q313.93 11.67 312.77 12.92Q311.61 14.17 310.18 15.38Q308.76 16.59 307.34 17.73Q305.91 18.88 304.68 19.90L304.68 19.90Q303.84 21.69 303.38 23.08Q302.93 24.46 302.68 25.31L302.68 25.31Q303.07 24.82 303.84 23.90Q304.61 22.99 305.60 21.93Q306.58 20.88 307.64 19.91Q308.69 18.95 309.64 18.33Q310.59 17.72 311.26 17.72L311.26 17.72Q312.10 17.72 312.10 18.59L312.10 18.59Q312.10 19.44 311.50 20.46Q310.90 21.48 310.52 22.18L310.52 22.18Q310.03 23.20 309.73 24.13Q309.43 25.06 309.36 25.66L309.36 25.66Q309.32 25.80 309.32 25.92Q309.32 26.05 309.32 26.19L309.32 26.19Q309.32 27.59 310.31 27.59L310.31 27.59Q310.83 27.59 311.71 26.96Q312.59 26.33 313.51 25.45Q314.42 24.57 315.18 23.74Q315.93 22.92 316.21 22.50L316.21 22.50Q316.32 22.39 316.46 22.39L316.46 22.39Q316.60 22.39 316.67 22.50Q316.74 22.60 316.67 22.78L316.67 22.78Q316.32 23.37 315.58 24.27Q314.84 25.17 313.93 26.06Q313.01 26.96 312.13 27.59L312.13 27.59Q311.68 27.94 310.96 28.21Q310.24 28.47 309.53 28.47L309.53 28.47Q308.97 28.47 308.44 28.19Q307.92 27.91 307.67 27.14L307.67 27.14Q307.57 26.82 307.57 26.26L307.57 26.26Q307.57 26.08 307.57 25.89Q307.57 25.69 307.60 25.48L307.60 25.48Q307.74 24.36 308.36 23.11Q308.97 21.86 309.50 20.88L309.50 20.88Q309.64 20.60 309.73 20.39Q309.82 20.18 309.82 20.04L309.82 20.04Q309.82 19.75 309.57 19.75L309.57 19.75Q309.32 19.75 308.80 20.07Q308.27 20.39 307.39 21.16L307.39 21.16Q306.62 21.83 305.76 22.90Q304.89 23.97 304.07 25.10Q303.24 26.22 302.63 27.03Q302.01 27.84 301.77 27.98L301.77 27.98Q301.59 28.09 300.96 28.33Q300.32 28.58 300.04 28.58ZM305.35 18.31L305.35 18.31Q306.76 17.36 308.41 15.94Q310.06 14.52 311.52 12.88Q312.98 11.25 313.75 9.77L313.75 9.77Q314.17 8.96 314.17 8.44L314.17 8.44Q314.17 7.84 313.65 7.84L313.65 7.84Q313.40 7.84 313.08 7.96Q312.77 8.08 312.35 8.40L312.35 8.40Q309.99 10.23 308.37 12.74Q306.76 15.26 305.35 18.31ZM325.49 28.47L325.49 28.47Q324.86 28.47 324.37 28.19Q323.88 27.91 323.63 27.14L323.63 27.14Q323.59 26.96 323.54 26.73Q323.49 26.50 323.49 26.26L323.49 26.26Q323.49 25.41 323.72 24.36Q323.95 23.30 324.23 22.60L324.23 22.60Q324.09 22.71 323.73 23.30Q323.38 23.90 322.86 24.69Q322.33 25.48 321.68 26.27Q321.03 27.07 320.27 27.58Q319.52 28.09 318.67 28.09L318.67 28.09Q318.11 28.09 317.32 27.77Q316.53 27.45 316.18 26.89L316.18 26.89Q315.83 26.33 315.83 25.48L315.83 25.48Q315.83 24.46 316.28 23.25Q316.74 22.04 317.44 20.98L317.44 20.98Q317.69 20.63 318.01 20.14Q318.32 19.65 318.64 19.28Q318.95 18.91 319.09 18.88L319.09 18.88Q319.52 18.74 320.08 18.74L320.08 18.74Q320.68 18.74 320.96 18.88L320.96 18.88Q321.20 18.98 321.20 19.12L321.20 19.12Q321.20 19.30 320.92 19.58L320.92 19.58Q320.54 19.93 319.87 20.63Q319.20 21.34 318.55 22.32Q317.90 23.30 317.48 24.50L317.48 24.50Q317.13 25.45 317.13 26.15L317.13 26.15Q317.13 27.38 318.11 27.38L318.11 27.38Q318.95 27.38 319.90 26.68Q320.85 25.98 321.75 24.96Q322.64 23.94 323.37 22.94Q324.09 21.93 324.47 21.34L324.47 21.34Q324.82 20.84 325.26 20.07Q325.70 19.30 326.12 18.56Q326.55 17.82 326.79 17.47L326.79 17.47Q327.04 17.47 327.55 17.56Q328.06 17.65 328.43 17.86Q328.80 18.07 328.62 18.38L328.62 18.38Q328.41 18.74 327.97 19.47Q327.53 20.21 327.09 20.97Q326.65 21.72 326.41 22.18L326.41 22.18Q325.56 23.80 325.32 25.66L325.32 25.66Q325.28 25.80 325.28 25.92Q325.28 26.05 325.28 26.19L325.28 26.19Q325.28 27.59 326.23 27.59L326.23 27.59Q326.76 27.59 327.64 26.96Q328.51 26.33 329.45 25.45Q330.38 24.57 331.13 23.74Q331.89 22.92 332.17 22.50L332.17 22.50Q332.24 22.39 332.38 22.39L332.38 22.39Q332.52 22.39 332.61 22.50Q332.70 22.60 332.59 22.78L332.59 22.78Q332.28 23.37 331.52 24.27Q330.76 25.17 329.85 26.06Q328.94 26.96 328.06 27.59L328.06 27.59Q327.60 27.94 326.90 28.21Q326.20 28.47 325.49 28.47ZM336.71 28.54L336.71 28.54Q336.11 28.54 335.65 28.28Q335.19 28.01 335.02 27.28L335.02 27.28Q334.91 26.89 334.91 26.50L334.91 26.50Q334.91 25.45 335.46 24.45Q336.00 23.45 336.74 22.58Q337.48 21.72 338.01 21.13L338.01 21.13Q338.29 20.84 338.66 20.39Q339.02 19.93 339.02 19.47L339.02 19.47Q339.02 19.19 338.74 18.93Q338.46 18.66 337.72 18.56L337.72 18.56Q337.30 18.49 336.93 18.44Q336.56 18.38 336.18 18.38L336.18 18.38Q335.19 19.72 334.26 21.07Q333.33 22.43 332.28 23.73L332.28 23.73Q332.03 23.97 331.85 23.97L331.85 23.97Q331.64 23.97 331.64 23.76L331.64 23.76Q331.64 23.55 331.85 23.34L331.85 23.34Q333.75 21.02 335.12 18.38L335.12 18.38Q334.95 18.38 334.60 18.37Q334.24 18.35 334.03 18.31L334.03 18.31Q333.79 18.24 333.65 18.10Q333.51 17.96 333.51 17.82L333.51 17.82Q333.51 17.61 333.68 17.58L333.68 17.58Q334.14 17.43 334.67 17.15Q335.19 16.87 335.65 16.42L335.65 16.42Q336.14 15.92 336.56 15.38Q336.99 14.83 337.23 14.55L337.23 14.55Q337.48 14.38 337.76 14.38L337.76 14.38Q337.94 14.38 338.09 14.48Q338.25 14.59 338.25 14.80L338.25 14.80Q338.25 15.04 338.04 15.43L338.04 15.43Q337.72 15.92 337.36 16.52Q336.99 17.12 336.67 17.61L336.67 17.61Q337.30 17.65 337.94 17.68Q338.57 17.72 339.24 17.72L339.24 17.72Q339.59 17.72 339.92 17.70Q340.26 17.68 340.61 17.68L340.61 17.68Q341.66 17.68 341.66 18.21L341.66 18.21Q341.66 18.56 341.29 19.07Q340.92 19.58 340.40 20.18L340.40 20.18Q339.20 21.55 338.36 23.06Q337.51 24.57 337.23 25.38L337.23 25.38Q336.95 26.22 336.95 26.64L336.95 26.64Q336.95 27.49 337.62 27.49L337.62 27.49Q338.22 27.49 339.08 26.89Q339.94 26.29 340.85 25.43Q341.77 24.57 342.50 23.74Q343.24 22.92 343.56 22.50L343.56 22.50Q343.63 22.39 343.77 22.39L343.77 22.39Q343.91 22.39 344.02 22.51Q344.12 22.64 344.02 22.81L344.02 22.81Q343.63 23.41 342.89 24.31Q342.15 25.20 341.24 26.08Q340.33 26.96 339.45 27.59L339.45 27.59Q338.99 27.94 338.20 28.24Q337.41 28.54 336.71 28.54ZM347.60 28.51L347.60 28.51Q346.97 28.61 346.34 28.61L346.34 28.61Q344.79 28.61 343.77 27.87Q342.75 27.14 342.75 25.73L342.75 25.73Q342.75 24.89 343.24 23.69L343.24 23.69Q343.59 22.88 344.54 21.83Q345.49 20.77 346.76 19.77Q348.02 18.77 349.32 18.12Q350.62 17.47 351.68 17.47L351.68 17.47Q352.07 17.47 352.38 17.58L352.38 17.58Q352.77 17.72 353.05 17.96Q353.33 18.21 353.33 18.70L353.33 18.70Q353.33 18.81 353.33 18.91Q353.33 19.02 353.26 19.16L353.26 19.16Q353.26 19.26 353.10 19.61Q352.94 19.97 352.75 20.23Q352.56 20.49 352.42 20.35L352.42 20.35Q352.28 20.25 352.28 20.07L352.28 20.07Q352.28 19.90 352.36 19.67Q352.45 19.44 352.45 19.26L352.45 19.26Q352.45 19.02 352.33 18.79Q352.21 18.56 351.93 18.56L351.93 18.56Q351.26 18.56 350.20 19.16Q349.15 19.75 348.04 20.76Q346.93 21.76 346.05 22.95Q345.18 24.15 344.82 25.34L344.82 25.34Q344.72 25.62 344.68 25.89Q344.65 26.15 344.65 26.40L344.65 26.40Q344.65 27.17 345.16 27.51Q345.67 27.84 346.41 27.84L346.41 27.84Q347.21 27.84 348.06 27.59L348.06 27.59Q350.45 26.89 351.94 25.66Q353.44 24.43 354.95 22.50L354.95 22.50Q355.09 22.32 355.19 22.36Q355.30 22.39 355.37 22.39L355.37 22.39Q355.48 22.43 355.48 22.60L355.48 22.60Q355.48 22.67 355.44 22.78Q355.40 22.88 355.37 22.95L355.37 22.95Q353.86 24.99 352.03 26.52Q350.20 28.05 347.60 28.51ZM355.05 28.58L355.05 28.58Q354.77 28.58 354.91 28.33L354.91 28.33Q354.98 28.12 355.28 27.28Q355.58 26.43 356.00 25.24Q356.42 24.04 356.88 22.79Q357.34 21.55 357.72 20.56L357.72 20.56Q357.48 20.88 356.97 21.48Q356.46 22.07 355.90 22.74Q355.33 23.41 354.84 23.90L354.84 23.90Q354.74 24.01 354.70 24.01L354.70 24.01Q354.60 24.01 354.60 23.80L354.60 23.80Q354.60 23.37 354.81 23.02L354.81 23.02Q355.58 22.04 356.30 21.18Q357.02 20.32 357.62 19.54L357.62 19.54Q357.27 19.33 357.27 19.02L357.27 19.02Q357.27 18.52 357.76 18.52L357.76 18.52Q357.97 18.52 358.08 18.59L358.08 18.59Q358.11 18.63 358.15 18.63Q358.18 18.63 358.22 18.70L358.22 18.70Q358.39 18.45 358.52 18.24Q358.64 18.03 358.74 17.79L358.74 17.79Q358.88 17.47 359.32 16.57Q359.76 15.68 360.43 14.45Q361.10 13.22 361.96 11.90Q362.82 10.58 363.82 9.44Q364.83 8.30 365.90 7.59Q366.97 6.89 368.09 6.89L368.09 6.89Q368.23 6.89 368.38 6.91Q368.52 6.92 368.66 6.96L368.66 6.96Q369.54 7.14 369.89 7.57Q370.24 8.01 370.24 8.61L370.24 8.61Q370.24 9.03 370.08 9.51Q369.92 9.98 369.64 10.44L369.64 10.44Q368.94 11.67 367.78 12.92Q366.62 14.17 365.19 15.38Q363.77 16.59 362.35 17.73Q360.92 18.88 359.69 19.90L359.69 19.90Q358.85 21.69 358.39 23.08Q357.94 24.46 357.69 25.31L357.69 25.31Q358.08 24.82 358.85 23.90Q359.62 22.99 360.61 21.93Q361.59 20.88 362.65 19.91Q363.70 18.95 364.65 18.33Q365.60 17.72 366.27 17.72L366.27 17.72Q367.11 17.72 367.11 18.59L367.11 18.59Q367.11 19.44 366.51 20.46Q365.91 21.48 365.53 22.18L365.53 22.18Q365.04 23.20 364.74 24.13Q364.44 25.06 364.37 25.66L364.37 25.66Q364.33 25.80 364.33 25.92Q364.33 26.05 364.33 26.19L364.33 26.19Q364.33 27.59 365.32 27.59L365.32 27.59Q365.84 27.59 366.72 26.96Q367.60 26.33 368.52 25.45Q369.43 24.57 370.19 23.74Q370.94 22.92 371.22 22.50L371.22 22.50Q371.33 22.39 371.47 22.39L371.47 22.39Q371.61 22.39 371.68 22.50Q371.75 22.60 371.68 22.78L371.68 22.78Q371.33 23.37 370.59 24.27Q369.85 25.17 368.94 26.06Q368.02 26.96 367.15 27.59L367.15 27.59Q366.69 27.94 365.97 28.21Q365.25 28.47 364.54 28.47L364.54 28.47Q363.98 28.47 363.45 28.19Q362.93 27.91 362.68 27.14L362.68 27.14Q362.58 26.82 362.58 26.26L362.58 26.26Q362.58 26.08 362.58 25.89Q362.58 25.69 362.61 25.48L362.61 25.48Q362.75 24.36 363.37 23.11Q363.98 21.86 364.51 20.88L364.51 20.88Q364.65 20.60 364.74 20.39Q364.83 20.18 364.83 20.04L364.83 20.04Q364.83 19.75 364.58 19.75L364.58 19.75Q364.33 19.75 363.81 20.07Q363.28 20.39 362.40 21.16L362.40 21.16Q361.63 21.83 360.77 22.90Q359.90 23.97 359.08 25.10Q358.25 26.22 357.64 27.03Q357.02 27.84 356.78 27.98L356.78 27.98Q356.60 28.09 355.97 28.33Q355.33 28.58 355.05 28.58ZM360.36 18.31L360.36 18.31Q361.77 17.36 363.42 15.94Q365.07 14.52 366.53 12.88Q367.99 11.25 368.76 9.77L368.76 9.77Q369.18 8.96 369.18 8.44L369.18 8.44Q369.18 7.84 368.66 7.84L368.66 7.84Q368.41 7.84 368.09 7.96Q367.78 8.08 367.36 8.40L367.36 8.40Q365.00 10.23 363.38 12.74Q361.77 15.26 360.36 18.31Z" transform="translate(0, 0)"></path></g></svg></g></svg>